<mxfile host="drawio-plugin" modified="2022-10-12T10:00:23.301Z" agent="5.0 (Windows NT 6.2; Win64; x64) AppleWebKit/537.36 (KHTML, like Gecko) Chrome/98.0.4758.102 Safari/537.36" etag="se1XeWeuQpg8UJXVRiSW" version="15.5.4" type="embed"><diagram id="sa6Q3xUmAi24UDrEMSUv" name="Página-1"><mxGraphModel dx="1365" dy="1689" grid="1" gridSize="10" guides="1" tooltips="1" connect="1" arrows="1" fold="1" page="1" pageScale="1" pageWidth="827" pageHeight="1169" math="0" shadow="0"><root><mxCell id="0"/><mxCell id="1" parent="0"/><mxCell id="XrOO0wk5_OICAEsCVDQP-19" style="edgeStyle=orthogonalEdgeStyle;rounded=0;orthogonalLoop=1;jettySize=auto;html=1;endArrow=none;endFill=0;shape=link;entryX=0;entryY=0.5;entryDx=0;entryDy=0;" parent="1" target="25" edge="1"><mxGeometry relative="1" as="geometry"><mxPoint x="180" y="85" as="sourcePoint"/><mxPoint x="180" y="152" as="targetPoint"/><Array as="points"><mxPoint x="180" y="299"/></Array></mxGeometry></mxCell><mxCell id="XrOO0wk5_OICAEsCVDQP-22" value="1" style="text;html=1;align=center;verticalAlign=middle;resizable=0;points=[];autosize=1;strokeColor=none;fillColor=none;" parent="1" vertex="1"><mxGeometry x="200" y="89" width="30" height="30" as="geometry"/></mxCell><mxCell id="84" style="edgeStyle=orthogonalEdgeStyle;rounded=0;orthogonalLoop=1;jettySize=auto;html=1;endArrow=none;endFill=0;" parent="1" source="24" edge="1"><mxGeometry relative="1" as="geometry"><mxPoint x="565" y="370" as="targetPoint"/></mxGeometry></mxCell><mxCell id="256" style="edgeStyle=orthogonalEdgeStyle;rounded=0;orthogonalLoop=1;jettySize=auto;html=1;endArrow=none;endFill=0;" parent="1" source="24" target="255" edge="1"><mxGeometry relative="1" as="geometry"/></mxCell><mxCell id="24" value="USER" style="whiteSpace=wrap;html=1;align=center;" parent="1" vertex="1"><mxGeometry x="395" y="279" width="100" height="40" as="geometry"/></mxCell><mxCell id="27" style="edgeStyle=orthogonalEdgeStyle;rounded=0;orthogonalLoop=1;jettySize=auto;html=1;endArrow=none;endFill=0;" parent="1" source="25" target="24" edge="1"><mxGeometry relative="1" as="geometry"/></mxCell><mxCell id="25" value="is" style="shape=rhombus;perimeter=rhombusPerimeter;whiteSpace=wrap;html=1;align=center;" parent="1" vertex="1"><mxGeometry x="195" y="269" width="120" height="60" as="geometry"/></mxCell><mxCell id="31" value="2" style="text;html=1;align=center;verticalAlign=middle;resizable=0;points=[];autosize=1;strokeColor=none;fillColor=none;" parent="1" vertex="1"><mxGeometry x="370" y="279" width="20" height="20" as="geometry"/></mxCell><mxCell id="32" value="id" style="ellipse;whiteSpace=wrap;html=1;align=center;fontStyle=4" parent="1" vertex="1"><mxGeometry x="550" y="207" width="100" height="40" as="geometry"/></mxCell><mxCell id="33" style="edgeStyle=orthogonalEdgeStyle;rounded=0;orthogonalLoop=1;jettySize=auto;html=1;endArrow=none;endFill=0;exitX=0.5;exitY=0;exitDx=0;exitDy=0;entryX=0.5;entryY=0;entryDx=0;entryDy=0;" parent="1" target="24" edge="1"><mxGeometry relative="1" as="geometry"><mxPoint x="555" y="229" as="sourcePoint"/><mxPoint x="405" y="309" as="targetPoint"/></mxGeometry></mxCell><mxCell id="188" style="edgeStyle=orthogonalEdgeStyle;rounded=0;orthogonalLoop=1;jettySize=auto;html=1;fontColor=#FFFFFF;endArrow=none;endFill=0;shape=link;" parent="1" target="187" edge="1"><mxGeometry relative="1" as="geometry"><mxPoint x="230" y="65" as="sourcePoint"/></mxGeometry></mxCell><mxCell id="195" style="edgeStyle=orthogonalEdgeStyle;rounded=0;orthogonalLoop=1;jettySize=auto;html=1;endArrow=none;endFill=0;shape=link;" parent="1" target="144" edge="1"><mxGeometry relative="1" as="geometry"><mxPoint x="130" y="65" as="sourcePoint"/></mxGeometry></mxCell><mxCell id="87" style="edgeStyle=orthogonalEdgeStyle;rounded=0;orthogonalLoop=1;jettySize=auto;html=1;entryX=0;entryY=0.5;entryDx=0;entryDy=0;endArrow=none;endFill=0;" parent="1" source="55" target="86" edge="1"><mxGeometry relative="1" as="geometry"/></mxCell><mxCell id="55" value="CONFIGURATION" style="shape=ext;margin=3;double=1;whiteSpace=wrap;html=1;align=center;" parent="1" vertex="1"><mxGeometry x="430" y="45" width="140" height="40" as="geometry"/></mxCell><mxCell id="58" style="edgeStyle=orthogonalEdgeStyle;rounded=0;orthogonalLoop=1;jettySize=auto;html=1;endArrow=none;endFill=0;" parent="1" source="57" target="55" edge="1"><mxGeometry relative="1" as="geometry"/></mxCell><mxCell id="57" value="board_size" style="ellipse;whiteSpace=wrap;html=1;align=center;" parent="1" vertex="1"><mxGeometry x="330" y="-70" width="100" height="40" as="geometry"/></mxCell><mxCell id="61" style="edgeStyle=orthogonalEdgeStyle;rounded=0;orthogonalLoop=1;jettySize=auto;html=1;entryX=0.75;entryY=0;entryDx=0;entryDy=0;endArrow=none;endFill=0;" parent="1" source="59" target="55" edge="1"><mxGeometry relative="1" as="geometry"/></mxCell><mxCell id="59" value="n_shots" style="ellipse;whiteSpace=wrap;html=1;align=center;" parent="1" vertex="1"><mxGeometry x="470" y="-70" width="100" height="40" as="geometry"/></mxCell><mxCell id="63" style="edgeStyle=orthogonalEdgeStyle;rounded=0;orthogonalLoop=1;jettySize=auto;html=1;entryX=1;entryY=0.5;entryDx=0;entryDy=0;endArrow=none;endFill=0;" parent="1" source="62" target="55" edge="1"><mxGeometry relative="1" as="geometry"/></mxCell><mxCell id="62" value="timeout" style="ellipse;whiteSpace=wrap;html=1;align=center;" parent="1" vertex="1"><mxGeometry x="600" y="-60" width="100" height="40" as="geometry"/></mxCell><mxCell id="67" value="CARRIER" style="whiteSpace=wrap;html=1;align=center;" parent="1" vertex="1"><mxGeometry x="780" y="394" width="100" height="40" as="geometry"/></mxCell><mxCell id="68" value="" style="ellipse;whiteSpace=wrap;html=1;" parent="1" vertex="1"><mxGeometry x="1095" y="274" width="30" height="30" as="geometry"/></mxCell><mxCell id="69" value="d" style="text;html=1;strokeColor=none;fillColor=none;align=center;verticalAlign=middle;whiteSpace=wrap;rounded=0;" parent="1" vertex="1"><mxGeometry x="1080" y="274" width="60" height="30" as="geometry"/></mxCell><mxCell id="70" value="" style="endArrow=none;html=1;rounded=0;exitX=0.5;exitY=0;exitDx=0;exitDy=0;" parent="1" source="67" target="69" edge="1"><mxGeometry relative="1" as="geometry"><mxPoint x="1275" y="530" as="sourcePoint"/><mxPoint x="980" y="300" as="targetPoint"/></mxGeometry></mxCell><mxCell id="71" value="BATTLESHIP" style="whiteSpace=wrap;html=1;align=center;" parent="1" vertex="1"><mxGeometry x="940" y="397" width="100" height="40" as="geometry"/></mxCell><mxCell id="72" value="CRUISER" style="whiteSpace=wrap;html=1;align=center;" parent="1" vertex="1"><mxGeometry x="1090" y="394" width="100" height="40" as="geometry"/></mxCell><mxCell id="73" value="" style="endArrow=none;html=1;rounded=0;exitX=0.5;exitY=0;exitDx=0;exitDy=0;entryX=0.25;entryY=1;entryDx=0;entryDy=0;" parent="1" source="71" target="69" edge="1"><mxGeometry relative="1" as="geometry"><mxPoint x="840" y="404" as="sourcePoint"/><mxPoint x="1000" y="299" as="targetPoint"/></mxGeometry></mxCell><mxCell id="74" value="" style="endArrow=none;html=1;rounded=0;exitX=0.5;exitY=0;exitDx=0;exitDy=0;entryX=0.75;entryY=1;entryDx=0;entryDy=0;" parent="1" source="72" target="69" edge="1"><mxGeometry relative="1" as="geometry"><mxPoint x="840" y="404" as="sourcePoint"/><mxPoint x="990" y="310" as="targetPoint"/></mxGeometry></mxCell><mxCell id="77" value="DESTROYER" style="whiteSpace=wrap;html=1;align=center;" parent="1" vertex="1"><mxGeometry x="1370" y="397" width="100" height="40" as="geometry"/></mxCell><mxCell id="78" value="SUBMARINE" style="whiteSpace=wrap;html=1;align=center;" parent="1" vertex="1"><mxGeometry x="1220" y="397" width="100" height="40" as="geometry"/></mxCell><mxCell id="79" value="" style="endArrow=none;html=1;rounded=0;exitX=0.5;exitY=0;exitDx=0;exitDy=0;" parent="1" source="78" target="69" edge="1"><mxGeometry relative="1" as="geometry"><mxPoint x="1120" y="407" as="sourcePoint"/><mxPoint x="1270" y="307" as="targetPoint"/></mxGeometry></mxCell><mxCell id="80" value="" style="endArrow=none;html=1;rounded=0;exitX=0.5;exitY=0;exitDx=0;exitDy=0;" parent="1" source="77" target="69" edge="1"><mxGeometry relative="1" as="geometry"><mxPoint x="1120" y="407" as="sourcePoint"/><mxPoint x="1285" y="307" as="targetPoint"/></mxGeometry></mxCell><mxCell id="83" value="passwrod_validation" style="ellipse;whiteSpace=wrap;html=1;align=center;fontStyle=0" parent="1" vertex="1"><mxGeometry x="520" y="360" width="100" height="40" as="geometry"/></mxCell><mxCell id="250" style="edgeStyle=orthogonalEdgeStyle;shape=link;rounded=0;orthogonalLoop=1;jettySize=auto;html=1;entryX=0;entryY=0.5;entryDx=0;entryDy=0;endArrow=none;endFill=0;" parent="1" source="86" target="244" edge="1"><mxGeometry relative="1" as="geometry"/></mxCell><mxCell id="86" value="has" style="shape=rhombus;perimeter=rhombusPerimeter;whiteSpace=wrap;html=1;align=center;" parent="1" vertex="1"><mxGeometry x="800" y="79" width="120" height="60" as="geometry"/></mxCell><mxCell id="89" value="1" style="text;html=1;align=center;verticalAlign=middle;resizable=0;points=[];autosize=1;strokeColor=none;fillColor=none;" parent="1" vertex="1"><mxGeometry x="580" y="70" width="30" height="30" as="geometry"/></mxCell><mxCell id="90" value="N" style="text;html=1;align=center;verticalAlign=middle;resizable=0;points=[];autosize=1;strokeColor=none;fillColor=none;" parent="1" vertex="1"><mxGeometry x="1020" y="217" width="20" height="20" as="geometry"/></mxCell><mxCell id="92" style="edgeStyle=orthogonalEdgeStyle;rounded=0;orthogonalLoop=1;jettySize=auto;html=1;endArrow=none;endFill=0;" parent="1" source="91" target="86" edge="1"><mxGeometry relative="1" as="geometry"/></mxCell><mxCell id="91" value="length" style="ellipse;whiteSpace=wrap;html=1;align=center;" parent="1" vertex="1"><mxGeometry x="810" width="100" height="40" as="geometry"/></mxCell><mxCell id="117" style="edgeStyle=orthogonalEdgeStyle;rounded=0;orthogonalLoop=1;jettySize=auto;html=1;entryX=1;entryY=0.5;entryDx=0;entryDy=0;endArrow=none;endFill=0;shape=link;" parent="1" source="93" target="116" edge="1"><mxGeometry relative="1" as="geometry"/></mxCell><mxCell id="162" style="edgeStyle=orthogonalEdgeStyle;rounded=0;orthogonalLoop=1;jettySize=auto;html=1;entryX=0.5;entryY=0;entryDx=0;entryDy=0;endArrow=none;endFill=0;shape=link;" parent="1" source="93" target="144" edge="1"><mxGeometry relative="1" as="geometry"><mxPoint x="-190" y="-190" as="targetPoint"/></mxGeometry></mxCell><mxCell id="228" style="edgeStyle=orthogonalEdgeStyle;rounded=0;orthogonalLoop=1;jettySize=auto;html=1;endArrow=none;endFill=0;" parent="1" source="93" edge="1"><mxGeometry relative="1" as="geometry"><mxPoint x="-170" y="-230" as="targetPoint"/></mxGeometry></mxCell><mxCell id="93" value="BOARD" style="shape=ext;margin=3;double=1;whiteSpace=wrap;html=1;align=center;" parent="1" vertex="1"><mxGeometry x="-350" y="-210" width="100" height="40" as="geometry"/></mxCell><mxCell id="99" value="2" style="text;html=1;align=center;verticalAlign=middle;resizable=0;points=[];autosize=1;strokeColor=none;fillColor=none;" parent="1" vertex="1"><mxGeometry x="-325" y="-165" width="20" height="20" as="geometry"/></mxCell><mxCell id="273" style="edgeStyle=orthogonalEdgeStyle;rounded=0;orthogonalLoop=1;jettySize=auto;html=1;endArrow=none;endFill=0;" parent="1" source="100" edge="1"><mxGeometry relative="1" as="geometry"><mxPoint x="-720.0002162634433" y="-359.94117647058806" as="targetPoint"/><Array as="points"><mxPoint x="-690" y="-360"/></Array></mxGeometry></mxCell><mxCell id="100" value="PANEL" style="shape=ext;margin=3;double=1;whiteSpace=wrap;html=1;align=center;" parent="1" vertex="1"><mxGeometry x="-690" y="-260" width="100" height="40" as="geometry"/></mxCell><mxCell id="101" value="WATER" style="whiteSpace=wrap;html=1;align=center;" parent="1" vertex="1"><mxGeometry x="-590" y="-30" width="100" height="40" as="geometry"/></mxCell><mxCell id="102" value="" style="ellipse;whiteSpace=wrap;html=1;" parent="1" vertex="1"><mxGeometry x="-655" y="-150" width="30" height="30" as="geometry"/></mxCell><mxCell id="103" value="d" style="text;html=1;strokeColor=none;fillColor=none;align=center;verticalAlign=middle;whiteSpace=wrap;rounded=0;" parent="1" vertex="1"><mxGeometry x="-670" y="-150" width="60" height="30" as="geometry"/></mxCell><mxCell id="104" value="" style="endArrow=none;html=1;rounded=0;exitX=0.5;exitY=0;exitDx=0;exitDy=0;" parent="1" edge="1"><mxGeometry relative="1" as="geometry"><mxPoint x="-760" y="-30" as="sourcePoint"/><mxPoint x="-650" y="-124" as="targetPoint"/></mxGeometry></mxCell><mxCell id="290" style="edgeStyle=orthogonalEdgeStyle;rounded=0;orthogonalLoop=1;jettySize=auto;html=1;endArrow=none;endFill=0;" edge="1" parent="1" source="105" target="289"><mxGeometry relative="1" as="geometry"/></mxCell><mxCell id="105" value="SHIP" style="whiteSpace=wrap;html=1;align=center;" parent="1" vertex="1"><mxGeometry x="-810" y="-30" width="100" height="40" as="geometry"/></mxCell><mxCell id="107" value="" style="endArrow=none;html=1;rounded=0;exitX=0.5;exitY=0;exitDx=0;exitDy=0;entryX=0.5;entryY=1;entryDx=0;entryDy=0;" parent="1" target="103" edge="1"><mxGeometry relative="1" as="geometry"><mxPoint x="-575" y="-30" as="sourcePoint"/><mxPoint x="-630" y="-125" as="targetPoint"/></mxGeometry></mxCell><mxCell id="112" value="" style="shape=link;html=1;rounded=0;" parent="1" source="100" target="103" edge="1"><mxGeometry relative="1" as="geometry"><mxPoint x="-650" y="-340" as="sourcePoint"/><mxPoint x="-490" y="-340" as="targetPoint"/></mxGeometry></mxCell><mxCell id="114" value="N" style="resizable=0;html=1;align=right;verticalAlign=bottom;" parent="112" connectable="0" vertex="1"><mxGeometry x="1" relative="1" as="geometry"><mxPoint y="-110" as="offset"/></mxGeometry></mxCell><mxCell id="118" style="edgeStyle=orthogonalEdgeStyle;rounded=0;orthogonalLoop=1;jettySize=auto;html=1;endArrow=none;endFill=0;shape=link;" parent="1" source="116" target="100" edge="1"><mxGeometry relative="1" as="geometry"/></mxCell><mxCell id="116" value="have" style="shape=rhombus;double=1;perimeter=rhombusPerimeter;whiteSpace=wrap;html=1;align=center;" parent="1" vertex="1"><mxGeometry x="-560" y="-360" width="120" height="60" as="geometry"/></mxCell><mxCell id="119" value="1" style="text;html=1;align=center;verticalAlign=middle;resizable=0;points=[];autosize=1;strokeColor=none;fillColor=none;" parent="1" vertex="1"><mxGeometry x="-380" y="-221" width="30" height="30" as="geometry"/></mxCell><mxCell id="121" style="edgeStyle=orthogonalEdgeStyle;rounded=0;orthogonalLoop=1;jettySize=auto;html=1;entryX=0;entryY=0.5;entryDx=0;entryDy=0;endArrow=none;endFill=0;" parent="1" source="120" target="100" edge="1"><mxGeometry relative="1" as="geometry"/></mxCell><mxCell id="120" value="hit" style="ellipse;whiteSpace=wrap;html=1;align=center;" parent="1" vertex="1"><mxGeometry x="-827" y="-261" width="100" height="40" as="geometry"/></mxCell><mxCell id="125" value="* represents a coordinate in the server" style="text;html=1;strokeColor=none;fillColor=none;align=center;verticalAlign=middle;whiteSpace=wrap;rounded=0;" parent="1" vertex="1"><mxGeometry x="-820" y="-420" width="240" height="30" as="geometry"/></mxCell><mxCell id="144" value="has" style="shape=rhombus;double=1;perimeter=rhombusPerimeter;whiteSpace=wrap;html=1;align=center;" parent="1" vertex="1"><mxGeometry x="-265" y="-100" width="130" height="60" as="geometry"/></mxCell><mxCell id="189" style="edgeStyle=orthogonalEdgeStyle;rounded=0;orthogonalLoop=1;jettySize=auto;html=1;entryX=0;entryY=0.5;entryDx=0;entryDy=0;fontColor=#FFFFFF;endArrow=none;endFill=0;" parent="1" source="187" target="55" edge="1"><mxGeometry relative="1" as="geometry"/></mxCell><mxCell id="187" value="has" style="shape=rhombus;perimeter=rhombusPerimeter;whiteSpace=wrap;html=1;align=center;" parent="1" vertex="1"><mxGeometry x="280" y="35" width="120" height="60" as="geometry"/></mxCell><mxCell id="190" value="1" style="text;html=1;align=center;verticalAlign=middle;resizable=0;points=[];autosize=1;strokeColor=none;fillColor=none;" parent="1" vertex="1"><mxGeometry x="230" y="40" width="30" height="30" as="geometry"/></mxCell><mxCell id="191" value="1" style="text;html=1;align=center;verticalAlign=middle;resizable=0;points=[];autosize=1;strokeColor=none;fillColor=none;" parent="1" vertex="1"><mxGeometry x="399" y="40" width="30" height="30" as="geometry"/></mxCell><mxCell id="196" value="1" style="text;html=1;align=center;verticalAlign=middle;resizable=0;points=[];autosize=1;strokeColor=none;fillColor=none;" parent="1" vertex="1"><mxGeometry x="90" y="35" width="30" height="30" as="geometry"/></mxCell><mxCell id="203" value="1" style="text;html=1;align=center;verticalAlign=middle;resizable=0;points=[];autosize=1;strokeColor=none;fillColor=none;" parent="1" vertex="1"><mxGeometry x="140" y="10" width="30" height="30" as="geometry"/></mxCell><mxCell id="245" style="edgeStyle=orthogonalEdgeStyle;rounded=0;orthogonalLoop=1;jettySize=auto;html=1;endArrow=none;endFill=0;shape=link;" parent="1" source="244" target="69" edge="1"><mxGeometry relative="1" as="geometry"/></mxCell><mxCell id="244" value="SHIP" style="whiteSpace=wrap;html=1;align=center;" parent="1" vertex="1"><mxGeometry x="1060" y="189" width="100" height="40" as="geometry"/></mxCell><mxCell id="286" style="edgeStyle=orthogonalEdgeStyle;rounded=0;orthogonalLoop=1;jettySize=auto;html=1;endArrow=none;endFill=0;" parent="1" source="252" target="285" edge="1"><mxGeometry relative="1" as="geometry"/></mxCell><mxCell id="288" style="edgeStyle=orthogonalEdgeStyle;rounded=0;orthogonalLoop=1;jettySize=auto;html=1;endArrow=none;endFill=0;" parent="1" source="252" target="287" edge="1"><mxGeometry relative="1" as="geometry"><Array as="points"><mxPoint x="150" y="217"/></Array></mxGeometry></mxCell><mxCell id="252" value="GAME" style="whiteSpace=wrap;html=1;align=center;" parent="1" vertex="1"><mxGeometry x="130" y="45" width="100" height="40" as="geometry"/></mxCell><mxCell id="254" style="edgeStyle=orthogonalEdgeStyle;rounded=0;orthogonalLoop=1;jettySize=auto;html=1;entryX=0;entryY=0;entryDx=0;entryDy=0;endArrow=none;endFill=0;" parent="1" source="253" target="252" edge="1"><mxGeometry relative="1" as="geometry"/></mxCell><mxCell id="253" value="id" style="ellipse;whiteSpace=wrap;html=1;align=center;fontStyle=4" parent="1" vertex="1"><mxGeometry x="-60" y="-30" width="100" height="40" as="geometry"/></mxCell><mxCell id="255" value="username" style="ellipse;whiteSpace=wrap;html=1;align=center;fontStyle=0" parent="1" vertex="1"><mxGeometry x="395" y="380" width="100" height="40" as="geometry"/></mxCell><mxCell id="270" value="&lt;span style=&quot;border-bottom: 1px dotted&quot;&gt;player&lt;/span&gt;" style="ellipse;whiteSpace=wrap;html=1;align=center;" parent="1" vertex="1"><mxGeometry x="-220" y="-261" width="100" height="40" as="geometry"/></mxCell><mxCell id="275" value="&lt;span style=&quot;border-bottom: 1px dotted&quot;&gt;idx&lt;/span&gt;" style="ellipse;whiteSpace=wrap;html=1;align=center;" parent="1" vertex="1"><mxGeometry x="-790" y="-370" width="100" height="40" as="geometry"/></mxCell><mxCell id="285" value="state" style="ellipse;whiteSpace=wrap;html=1;align=center;" parent="1" vertex="1"><mxGeometry x="130" y="-110" width="100" height="40" as="geometry"/></mxCell><mxCell id="287" value="player_turn" style="ellipse;whiteSpace=wrap;html=1;align=center;" parent="1" vertex="1"><mxGeometry x="20" y="197" width="100" height="40" as="geometry"/></mxCell><mxCell id="289" value="type" style="ellipse;whiteSpace=wrap;html=1;align=center;" vertex="1" parent="1"><mxGeometry x="-810" y="55" width="100" height="40" as="geometry"/></mxCell></root></mxGraphModel></diagram></mxfile>